<svg width="1366" height="740" viewBox="0 0 1366 740" fill="none" xmlns="http://www.w3.org/2000/svg">
<mask id="mask0_1_300" style="mask-type:alpha" maskUnits="userSpaceOnUse" x="-2" y="0" width="1368" height="740">
<rect x="-2" width="1368" height="739.643" fill="#D9D9D9"/>
</mask>
<g mask="url(#mask0_1_300)">
<g opacity="0.4">
<path d="M1431.76 648.769C1372.55 674.774 1312.41 697.747 1251.69 717.565C1224.74 726.435 1196.93 734.659 1170.35 734.319C1102.42 733.397 1062.6 678.036 1039.9 623.138C1018.96 572.496 1005.33 518.393 999.291 461.969C993.302 406.107 994.602 347.276 974.037 297.095C953.472 246.914 903.836 205.983 840.299 214.581C802.529 219.698 765.271 241.75 736.431 269.401C707.592 297.053 686.172 330.061 667.396 363.281C645.896 401.332 625.77 442.233 589.369 470.487C551.693 499.75 499.696 509.838 462.021 495.196C408.407 474.348 392.697 414.908 372.882 364.123C347.696 299.495 306.896 239.764 240.936 210.077C174.976 180.39 80.1799 187.193 12.6898 240.752" stroke="#C2E0DE" stroke-width="1.00186" stroke-miterlimit="10"/>
<path d="M1435.67 631.643C1377.81 657.086 1319.01 679.456 1259.63 698.621C1233.22 707.119 1206.11 715.133 1180.11 714.867C1113.66 714.147 1074.2 661.284 1050.82 608.622C1045.3 596.108 1040.25 583.377 1035.67 570.432C1022.48 533.101 1013.22 494.041 1008 453.703C1001.12 399.846 1001.17 343.07 980.462 294.429C959.755 245.787 911.354 207.941 850.281 212.947C828.005 214.479 805.318 220.639 783.904 230.971C769.325 238.174 755.484 247.015 742.767 257.244C736.845 262.012 731.152 267.028 725.713 272.27C703.747 293.498 685.608 319.216 669.251 344.974L664.432 352.626C639.527 392.448 614.435 433.699 575.315 461.628C537.606 488.526 487.706 498.984 450.828 484.817C398.304 464.741 381.884 407.841 361.449 359.557C359.855 355.756 358.192 351.969 356.46 348.198C330.345 291.342 290.567 240.373 230.01 215.002C165.469 188.014 73.824 196.127 8.67421 249.016" stroke="#C2E0DE" stroke-width="1.00186" stroke-miterlimit="10"/>
<path d="M1439.58 614.517C1383.06 639.397 1325.61 661.168 1267.57 679.694C1241.79 687.914 1215.3 695.592 1189.89 695.401C1124.96 694.855 1085.57 644.545 1061.84 594.22C1056.19 582.3 1051 570.117 1046.26 557.671C1032.62 521.919 1022.75 484.431 1016.77 445.639C1008.82 393.852 1007.66 339.103 986.945 291.935C966.227 244.766 918.803 209.755 860.3 211.5C836.694 212.21 814.628 214.662 792.767 222.838C777.557 228.534 762.879 236.127 749.205 245.371C742.691 249.755 736.419 254.487 730.433 259.532C705.955 280.127 685.576 307.274 667.064 334.238C665.223 336.909 663.401 339.566 661.591 342.239C633.354 383.808 603.408 425.357 561.401 452.932C523.904 477.606 476.009 488.214 439.841 474.652C388.362 455.283 371.233 400.969 350.211 355.19C348.554 351.588 346.85 348.018 345.099 344.48C318.311 290.659 278.517 243.035 219.237 220.153C156.069 195.707 67.3893 205.208 4.76114 257.256" stroke="#C2E0DE" stroke-width="1.00186" stroke-miterlimit="10"/>
<path d="M1443.48 597.374C1388.3 621.736 1332.16 642.923 1275.45 660.792C1250.28 668.736 1224.42 676.108 1199.54 676.002C1136.11 675.661 1096.93 627.882 1072.68 579.852C1066.91 568.454 1061.59 556.819 1056.7 544.945C1042.59 510.749 1032.14 474.798 1025.45 437.51C1016.53 387.783 1014.16 335.061 993.354 289.42C972.546 243.78 926.115 211.19 870.236 210.016C845.919 209.507 824.123 208.726 801.568 214.655C785.728 218.742 770.169 225.03 755.47 233.285C748.366 237.274 741.505 241.72 734.949 246.579C707.97 266.558 685.259 295.219 664.653 323.3L658.476 331.71C626.773 375.092 592.326 416.889 547.136 444.288C509.99 466.854 463.879 477.549 428.48 464.505C378.082 445.938 360.21 394.163 338.569 350.884C336.864 347.473 335.104 344.083 333.289 340.715C305.838 289.898 265.999 245.662 208.036 225.241C146.243 203.43 60.6862 214.33 0.562689 265.645" stroke="#C2E0DE" stroke-width="1.00186" stroke-miterlimit="10"/>
<path d="M1447.36 580.261C1393.58 604.065 1338.83 624.657 1283.5 641.887C1258.95 649.525 1233.73 656.606 1209.5 656.533C1147.55 656.318 1108.47 611.095 1083.77 565.333C1077.88 554.458 1072.42 543.359 1067.37 532.036C1052.8 499.398 1041.74 464.988 1034.32 429.208C1024.43 381.558 1020.9 330.76 999.881 286.73C978.86 242.7 933.5 212.124 880.3 208.372C855.236 206.503 833.735 202.613 810.496 206.313C794.095 208.789 777.681 213.787 761.959 221.093C754.281 224.683 746.828 228.842 739.688 233.52C710.208 252.883 685.196 283.014 662.415 312.314L655.665 321.019C620.557 366.173 581.608 408.171 533.203 435.391C496.632 455.959 452.114 466.635 417.462 454.122C368.133 436.295 349.54 387.09 327.302 346.299C325.527 343.077 323.715 339.888 321.866 336.732C293.763 288.936 253.888 248.058 197.222 230.113C136.836 210.985 54.3694 223.235 -3.38574 273.79" stroke="#C2E0DE" stroke-width="1.00186" stroke-miterlimit="10"/>
<path d="M1451.34 563.202C1398.9 586.423 1345.46 606.39 1291.46 622.946C1267.47 630.303 1242.91 637.05 1219.26 637.082C1158.86 637.089 1120.09 594.375 1094.81 550.948C1088.79 540.647 1083.18 530.095 1077.98 519.292C1062.97 488.228 1051.33 455.388 1043.18 421.153C1032.29 375.5 1027.45 326.875 1006.56 284.221C985.672 241.566 941.038 212.932 890.526 206.879C864.605 203.749 843.501 196.681 819.546 198.148C802.598 199.008 785.302 202.72 768.497 209.105C760.262 212.295 752.224 216.178 744.499 220.697C712.599 239.388 685.236 271.047 660.424 301.516C657.98 304.526 655.566 307.492 653.041 310.557C614.528 357.483 571.266 399.742 519.478 426.711C483.487 445.465 440.524 455.935 406.641 443.939C358.381 426.897 339.077 380.233 316.199 341.957C314.383 338.937 312.526 335.944 310.629 332.979C281.842 288.201 241.962 250.683 186.626 235.262C127.434 218.632 47.9908 232.136 -7.25639 282.05" stroke="#C2E0DE" stroke-width="1.00186" stroke-miterlimit="10"/>
<path d="M1455.2 545.995C1404.1 568.664 1352 588.028 1299.34 603.921C1275.99 610.988 1252.04 617.458 1228.99 617.534C1170.11 617.717 1131.52 577.548 1105.72 536.431C1099.58 526.663 1093.82 516.658 1088.46 506.416C1073.02 476.902 1060.77 445.609 1051.87 412.9C1040.05 369.28 1033.96 322.71 1012.9 281.609C991.853 240.508 948.28 213.303 900.438 205.316C873.583 200.812 852.95 190.634 828.28 189.868C810.84 189.108 792.681 191.531 774.783 197.005C765.988 199.754 757.349 203.345 749.024 207.713C714.542 225.844 684.98 258.905 658.021 290.502C655.351 293.618 652.673 296.763 649.992 299.863C608.045 348.605 560.575 391.149 505.319 417.828C470.038 434.871 428.501 445.032 395.333 433.52C348.152 417.234 328.128 373.14 304.631 337.365C302.729 334.569 300.827 331.772 298.925 328.975C269.486 287.218 229.489 253.113 175.509 240.08C117.886 226.237 41.521 241.076 -11.2843 290.251" stroke="#C2E0DE" stroke-width="1.00186" stroke-miterlimit="10"/>
<path d="M1459.1 528.868C1409.35 550.97 1358.59 569.73 1307.28 584.976C1284.52 591.75 1261.24 597.917 1238.83 598.026C1181.46 598.383 1143.06 560.76 1116.75 521.937C1110.48 512.722 1104.59 503.259 1099.08 493.549C1083.18 465.6 1070.35 435.866 1060.71 404.688C1047.87 363.11 1040.59 318.554 1019.49 279.046C998.39 239.537 958.725 205.396 910.549 203.783C885.419 193.069 862.6 184.661 837.255 181.636C819.346 179.244 800.309 180.372 781.277 184.95C771.941 187.276 762.707 190.58 753.769 194.792C716.786 212.306 685.024 246.768 655.839 279.596C652.977 282.851 650.093 286.089 647.188 289.31C601.836 339.823 550.173 382.807 491.392 409.07C456.939 424.486 416.731 434.24 384.355 423.324C338.262 407.763 317.486 366.238 293.392 332.951C291.578 330.283 289.549 327.738 287.508 325.131C257.441 286.472 217.465 255.592 164.68 245.103C108.443 233.911 35.1054 250.096 -15.2359 298.564" stroke="#C2E0DE" stroke-width="1.00186" stroke-miterlimit="10"/>
<path d="M1462.98 511.74C1414.59 533.287 1365.17 551.451 1315.23 566.05C1293.06 572.515 1270.43 578.378 1248.54 578.586C1192.68 579.148 1154.48 544.057 1127.68 507.529C1121.29 498.838 1115.24 489.936 1109.51 480.823C1093.16 454.436 1079.72 426.249 1069.36 396.587C1055.54 357.068 1047.03 314.554 1025.81 276.495C1004.6 238.435 966.4 205.355 920.41 202.278C894.938 189.575 872.021 178.705 845.961 173.447C827.619 169.45 807.724 169.289 787.556 172.974C777.687 174.871 767.856 177.886 758.298 181.949C718.814 198.847 684.681 234.851 653.472 268.771C650.385 272.131 647.283 275.486 644.167 278.834C595.421 331.136 539.755 374.573 477.281 400.391C443.658 414.273 404.755 423.542 373.136 413.127C328.102 398.336 306.607 359.381 281.893 328.595C279.942 326.163 277.961 323.775 275.907 321.412C245.089 285.629 205.176 258.252 153.708 250.225C98.8249 241.635 28.6674 259.085 -19.2209 306.831" stroke="#C2E0DE" stroke-width="1.00186" stroke-miterlimit="10"/>
<path d="M1466.89 494.613C1419.85 515.608 1371.78 533.165 1323.18 547.092C1301.61 553.294 1279.61 558.851 1258.3 559.134C1203.98 559.856 1165.98 527.343 1138.64 493.077C1132.11 484.907 1125.94 476.533 1120.12 467.956C1103.31 443.146 1089.27 416.521 1078.18 388.389C1063.38 350.885 1053.68 310.477 1032.37 273.883C1011.05 237.289 974.29 205.237 930.508 200.683C904.653 186.018 881.687 172.627 854.903 165.166C836.127 159.536 815.346 158.054 793.985 160.823C783.591 162.284 773.161 165.011 762.977 168.931C720.992 185.213 684.558 222.687 651.235 257.785C647.943 261.253 644.587 264.67 641.297 268.185C589.146 322.258 529.552 366.261 463.342 391.571C430.606 404.046 392.952 412.702 362.092 402.835C318.126 388.783 295.93 352.385 270.578 324.114C268.581 321.878 266.588 319.735 264.457 317.519C232.999 284.819 193.088 260.68 142.878 255.202C89.3898 249.234 22.2295 268.073 -23.2168 315.081" stroke="#C2E0DE" stroke-width="1.00186" stroke-miterlimit="10"/>
<path d="M1470.79 477.487C1425.11 497.922 1378.36 514.876 1331.12 528.148C1310.15 534.058 1288.8 539.31 1268.08 539.668C1215.19 540.619 1177.44 510.565 1149.61 478.641C1142.98 471.047 1136.66 463.214 1130.65 455.145C1113.39 431.894 1098.76 406.822 1086.93 380.218C1071.15 344.774 1060.18 306.343 1038.82 271.311C1017.47 236.279 982.12 205.161 940.504 199.157C914.307 182.502 891.202 166.676 863.743 156.956C844.986 150.278 823.438 146.538 800.354 148.76C789.444 149.814 778.424 152.256 767.608 156.017C723.122 171.683 684.418 210.63 648.95 246.903C645.444 250.493 641.916 254.051 638.398 257.625C582.843 313.47 519.267 358.266 449.289 382.758C417.484 393.891 381.055 401.855 350.964 392.506C308.067 379.24 285.14 345.396 259.189 319.613C257.127 317.587 255.045 315.574 252.913 313.62C220.812 283.91 180.794 263.201 131.942 260.157C79.8734 256.888 15.7919 277.062 -27.2279 323.483" stroke="#C2E0DE" stroke-width="1.00186" stroke-miterlimit="10"/>
<path d="M1474.7 460.36C1430.36 480.241 1384.95 496.593 1339.05 509.204C1318.72 514.824 1297.98 519.783 1277.86 520.201C1226.55 521.286 1188.95 493.805 1160.59 464.175C1153.82 457.143 1147.37 449.859 1141.24 442.322C1123.52 420.637 1108.29 397.117 1095.72 372.034C1078.9 338.553 1066.75 302.228 1045.34 268.727C1023.92 235.225 989.97 205.071 950.552 197.62C923.952 179.016 900.787 160.654 872.654 148.673C853.425 140.471 831.013 135.286 806.817 136.704C795.406 137.301 783.794 139.455 772.353 143.096C725.376 158.116 684.37 198.533 646.809 235.97C643.098 239.652 639.368 243.395 635.583 247.056C576.622 304.673 509.133 350.405 435.372 373.97C404.49 383.836 369.273 391.047 339.901 382.273C298.072 369.747 274.425 338.473 247.855 315.191C245.769 313.348 243.621 311.545 241.464 309.773C208.67 283.112 168.637 265.747 121.061 265.192C70.3773 264.528 9.36508 286.066 -31.1973 331.596" stroke="#C2E0DE" stroke-width="1.00186" stroke-miterlimit="10"/>
<path d="M1478.61 443.233C1435.61 462.536 1391.52 478.265 1346.97 490.198C1327.24 495.509 1307.15 500.165 1287.62 500.657C1237.89 501.875 1200.41 476.981 1171.49 449.596C1164.6 443.108 1158.02 436.351 1151.76 429.326C1133.61 409.188 1117.79 387.217 1104.49 363.664C1086.73 332.308 1073.33 297.946 1051.81 265.956C1030.29 233.966 997.793 204.81 960.562 195.895C933.599 175.316 910.312 154.412 881.487 140.277C861.756 130.55 838.482 123.965 813.149 124.454C801.224 124.62 789.006 126.488 776.914 129.993C727.437 144.397 684.161 186.287 644.411 224.834C640.507 228.655 636.553 232.463 632.551 236.257C570.196 295.661 498.8 342.514 421.229 364.981C391.294 373.66 357.34 380.059 328.703 371.755C287.974 359.97 263.574 331.264 236.458 310.459C234.327 308.811 232.134 307.205 229.932 305.629C196.454 281.986 156.417 267.982 110.138 269.902C60.9232 271.879 2.93777 294.764 -35.1606 339.587" stroke="#C2E0DE" stroke-width="1.00186" stroke-miterlimit="10"/>
<path d="M1482.54 426.139C1440.9 444.92 1398.17 460.074 1354.99 471.367C1335.84 476.4 1316.39 480.735 1297.42 481.316C1249.16 482.765 1211.84 460.432 1182.57 435.322C1175.56 429.387 1168.82 423.191 1162.35 416.734C1143.74 398.165 1127.31 377.756 1113.25 355.74C1094.53 326.414 1079.88 294.077 1058.31 263.617C1036.73 233.158 1001.78 210.893 970.607 194.573C938.298 177.677 919.907 148.667 890.356 132.284C870.143 121.016 846.026 113.018 819.557 112.625C807.122 112.359 794.3 113.924 781.551 117.264C729.573 131.052 683.996 174.412 642.226 214.144C638.086 218.07 633.926 222.011 629.732 225.903C563.997 287.158 488.678 335.283 407.289 356.422C378.291 363.943 345.537 369.527 317.657 361.724C277.956 350.706 252.877 324.543 225.07 306.264C222.873 304.827 220.646 303.433 218.399 302.053C184.269 281.43 144.196 270.784 99.2241 275.196C51.3445 279.836 -3.52157 304.027 -39.211 348.063" stroke="#C2E0DE" stroke-width="1.00186" stroke-miterlimit="10"/>
<path d="M1486.41 408.965C1446.13 427.199 1404.72 441.751 1362.89 452.375C1344.35 457.131 1325.56 461.208 1307.22 461.866C1260.45 463.504 1223.44 443.633 1193.58 420.935C1186.45 415.523 1179.57 409.869 1172.94 403.973C1153.83 386.919 1136.78 368.004 1121.98 347.443C1102.26 320.161 1086.4 289.882 1064.74 260.92C1043.08 231.959 1009.74 209.998 980.545 192.874C947.844 173.739 929.416 142.532 899.159 123.886C878.525 111.037 853.485 101.681 825.891 100.421C812.959 99.7432 799.548 101.027 786.158 104.226C731.678 117.397 683.82 162.214 639.876 203.165C635.542 207.2 631.156 211.246 626.748 215.26C557.575 278.239 478.346 328.006 393.215 347.577C365.095 354.028 333.564 358.567 306.537 351.318C267.926 341.073 242.115 317.464 213.689 301.686C211.447 300.445 209.094 299.303 206.883 298.064C172.07 280.459 131.992 273.174 88.3172 280.06C41.824 287.351 -9.96353 312.877 -43.167 356.239" stroke="#C2E0DE" stroke-width="1.00186" stroke-miterlimit="10"/>
<path d="M1490.32 391.838C1451.4 409.532 1411.33 423.51 1370.88 433.512C1353.04 437.89 1334.79 441.671 1317 442.4C1271.74 444.212 1235.02 426.819 1204.52 406.451C1197.28 401.584 1190.24 396.486 1183.47 391.116C1163.96 375.682 1146.36 358.385 1130.85 339.42C1110.15 314.182 1093.05 285.928 1071.33 258.496C1049.61 231.065 1017.92 209.304 990.693 191.529C957.739 170.011 939.134 136.75 908.151 115.856C886.964 101.539 861.143 90.7277 832.401 88.523C818.923 87.4155 804.865 88.409 790.772 91.465C733.853 103.978 683.644 150.324 637.595 192.421C633.047 196.579 628.395 200.759 623.813 204.868C551.235 269.617 468.033 321.283 379.158 338.979C351.939 344.392 321.663 347.935 295.335 341.276C257.791 331.77 231.26 310.732 202.236 297.441C199.929 296.41 197.632 295.395 195.275 294.421C159.809 279.837 119.695 275.909 77.3171 285.272C32.2306 295.199 -16.58 322.129 -47.2491 364.713" stroke="#C2E0DE" stroke-width="1.00186" stroke-miterlimit="10"/>
<path d="M1494.23 374.712C1456.63 391.829 1417.88 405.184 1378.77 414.504C1361.41 418.971 1343.96 421.776 1326.73 422.87C1283 424.856 1246.36 410.078 1215.46 391.937C1208.07 387.62 1200.9 383.039 1193.95 378.194C1173.98 364.311 1155.77 348.56 1139.51 331.119C1117.8 307.939 1099.54 281.701 1077.72 255.781C1055.9 229.861 1025.94 208.245 1000.62 189.86C967.599 165.836 948.633 130.645 916.933 107.472C895.255 91.6448 868.591 79.4207 838.714 76.3333C824.794 74.8167 810.199 75.5169 795.513 78.4061C736.031 90.3447 683.602 138.105 635.408 181.378C630.666 185.644 625.851 189.934 621.004 194.177C545.021 260.698 457.878 314.571 365.247 330.069C338.878 334.502 309.877 336.989 284.328 330.864C247.863 322.114 220.592 303.66 190.949 292.871C188.65 292.07 186.244 291.2 183.852 290.439C147.716 278.935 107.597 278.368 66.4658 290.263C22.7548 302.825 -22.9068 331.018 -51.2043 372.936" stroke="#C2E0DE" stroke-width="1.00186" stroke-miterlimit="10"/>
<path d="M1498.15 357.571C1461.9 374.128 1424.48 386.871 1386.74 395.515C1369.96 399.641 1353.14 402.277 1336.5 403.386C1294.28 405.548 1257.85 393.301 1226.43 377.454C1218.94 373.693 1211.64 369.67 1204.55 365.386C1184.13 353.066 1165.33 338.874 1148.34 322.968C1125.68 301.804 1106.14 277.619 1084.25 253.229C1062.37 228.839 1034.3 207.456 1010.71 188.34C977.732 161.711 958.274 124.703 925.836 99.265C903.696 81.8843 876.17 68.2608 845.157 64.2907C830.734 62.3553 815.535 62.7674 800.186 65.5102C738.248 76.8973 683.485 126.08 633.186 170.5C628.24 174.889 623.22 179.272 618.128 183.649C538.664 251.875 447.433 308.221 351.269 321.322C325.721 324.819 298.087 326.211 273.245 320.645C237.872 312.713 209.857 296.751 179.597 288.509C177.176 287.791 174.802 287.231 172.385 286.652C136.112 277.986 95.2356 280.989 55.656 295.227C13.3313 310.44 -29.2517 339.966 -55.0962 381.162" stroke="#C2E0DE" stroke-width="1.00186" stroke-miterlimit="10"/>
<path d="M1502.01 340.457C1467.11 356.464 1431.04 368.618 1394.67 376.618C1378.52 380.393 1362.34 382.869 1346.32 384.016C1305.62 386.352 1269.39 376.637 1237.44 363.113C1229.79 359.832 1222.39 356.328 1215.21 352.601C1194.3 341.85 1174.85 329.206 1157.1 314.813C1133.45 295.693 1112.69 273.566 1090.72 250.674C1068.76 227.782 1042.66 206.638 1020.72 186.831C988.097 157.405 967.796 118.677 934.748 91.0296C912.106 72.1228 883.75 57.1483 851.589 52.2333C836.67 49.88 820.875 49.9991 804.868 52.5857C740.387 63.3382 683.352 113.947 630.952 159.607C625.775 164.122 620.54 168.611 615.249 173.076C532.447 243.172 436.939 302.237 337.236 312.496C312.521 315.119 286.18 315.395 262.137 310.303C227.81 303.078 199.096 289.718 168.227 283.948C165.773 283.489 163.321 283.076 160.839 282.707C123.731 277.207 83.1055 283.312 44.8124 300.143C3.84935 318.189 -35.7211 348.953 -59.1347 389.394" stroke="#C2E0DE" stroke-width="1.00186" stroke-miterlimit="10"/>
<path d="M1505.92 323.331C1472.36 338.784 1437.61 350.338 1402.61 357.675C1387.05 361.094 1371.47 363.366 1356.04 364.469C1316.85 367.009 1280.83 359.827 1248.38 348.583C1240.64 345.96 1233.06 343.031 1225.63 339.796C1204.31 330.592 1184.32 319.499 1165.87 306.644C1141.24 289.568 1119.24 269.466 1097.19 248.118C1075.15 226.77 1051.11 205.81 1030.69 185.319C998.626 153.034 977.321 112.696 943.528 82.8603C920.403 62.4136 891.183 45.9936 857.99 40.1729C842.574 37.4109 826.183 37.2368 809.52 39.6582C742.515 49.7621 683.244 101.892 628.708 148.698C623.305 153.318 617.859 157.92 612.371 162.503C526.144 234.384 426.27 296.607 323.281 303.782C298.428 305.663 274.128 304.44 251.035 300.144C217.776 293.659 188.342 282.87 156.793 279.643C154.294 279.38 151.797 279.163 149.27 278.99C111.298 276.626 70.8794 285.813 33.8191 305.231C-5.74218 325.776 -42.1586 357.942 -63.1082 397.676" stroke="#C2E0DE" stroke-width="1.00186" stroke-miterlimit="10"/>
<path d="M1509.82 306.204C1477.6 321.115 1444.17 332.068 1410.54 338.731C1395.59 341.794 1380.65 343.89 1365.82 345.003C1328.15 347.718 1292.26 343.016 1259.34 334.131C1251.47 332.01 1243.75 329.623 1236.18 326.971C1214.41 319.32 1193.82 309.785 1174.62 298.472C1148.98 283.017 1125.26 265.305 1103.73 245.52C1081.74 225.788 1059.71 204.977 1040.85 183.683C1009.53 148.43 987.038 106.607 952.53 74.5389C928.934 52.5686 898.861 34.7191 864.42 28.0686C848.526 24.8999 831.556 24.4442 814.253 26.7216C744.726 36.177 683.197 89.8423 626.548 137.825C620.968 142.565 615.315 147.285 609.588 151.983C519.926 225.68 415.522 291.386 309.376 295.057C285.6 295.724 262.365 293.992 240.075 289.889C207.738 284.148 177.583 275.929 145.425 275.173C142.893 275.123 140.35 275.102 137.779 275.125C98.928 275.922 58.707 288.228 22.886 310.278C-15.2592 333.43 -48.6172 366.944 -67.1342 405.969" stroke="#C2E0DE" stroke-width="1.00186" stroke-miterlimit="10"/>
<path d="M1513.73 289.077C1425.98 330.168 1328.28 336.325 1246.74 314.162C1165.19 291.998 1099.11 243.104 1050.79 182.198C1020.42 143.932 996.492 100.698 961.299 66.353C926.105 32.0083 876.21 6.83374 818.792 13.8466C746.742 22.6535 682.976 77.8401 624.127 126.917C527.397 207.714 411.284 286.466 295.291 286.241C237.493 286.136 185.143 265.965 126.369 271.204C44.9111 278.466 -39.8793 339.865 -71.0281 414.149" stroke="#C2E0DE" stroke-width="1.00186" stroke-miterlimit="10"/>
</g>
</g>
</svg>
