<svg width="40" height="40" viewBox="0 0 40 40" fill="none" xmlns="http://www.w3.org/2000/svg">
<rect width="40" height="40" rx="11.7647" fill="#37B4A7"/>
<path d="M21.365 16.7435V18.1508C24.3203 18.9669 26.4593 21.669 26.4593 24.8494C26.4593 28.7053 23.3352 31.8294 19.5074 31.8294C15.6797 31.8294 12.5274 28.7053 12.5274 24.8775C12.5274 21.669 14.6946 18.967 17.6498 18.1789V16.7717C13.9345 17.6161 11.1764 20.9371 11.1764 24.8775C11.1764 29.4653 14.9197 33.2086 19.5074 33.2086C24.0951 33.2086 27.8385 29.4652 27.8385 24.8775C27.8383 20.9092 25.0799 17.616 21.365 16.7435Z" fill="white"/>
<path d="M17.6498 21.7253V20.2056C15.7922 20.9373 14.4694 22.7668 14.4694 24.8777C14.4694 27.6642 16.721 29.9158 19.5074 29.9158C22.2938 29.9158 24.5454 27.6641 24.5454 24.8777C24.5454 22.7668 23.2226 20.9375 21.3649 20.2056V21.7253C22.4626 22.3445 23.1662 23.5547 23.1662 24.8775C23.1662 26.904 21.5057 28.5645 19.4792 28.5645C17.4528 28.5645 15.7922 26.9321 15.7922 24.8775C15.8207 23.5266 16.5524 22.3446 17.6501 21.7253H17.6498Z" fill="white"/>
<path d="M19.5074 26.6226C20.4643 26.6226 21.2523 25.8345 21.2523 24.8776C21.2523 24.1459 20.802 23.5267 20.1828 23.2733L20.1829 14.6889C20.605 14.7733 20.971 14.8297 21.337 14.8297C22.1814 14.8297 22.9131 14.6326 23.5886 14.4637C24.6019 14.2105 25.5588 13.9572 26.8253 14.2949C27.0224 14.3512 27.2474 14.2949 27.4164 14.1824C27.5853 14.0416 27.6697 13.8447 27.6697 13.6476L27.6695 8.1311C27.6695 7.82149 27.4724 7.53994 27.163 7.4838C25.5586 7.0617 24.3484 7.37131 23.2508 7.65265C22.2375 7.90591 21.3087 8.13109 20.1547 7.79341V7.14612C20.1547 6.78017 19.8451 6.47058 19.4791 6.47058C19.1132 6.47058 18.8036 6.78019 18.8036 7.14612V23.2734C18.1844 23.5267 17.734 24.1459 17.734 24.8778C17.7625 25.8347 18.5505 26.6228 19.5074 26.6228L19.5074 26.6226ZM23.6167 8.94732C24.4891 8.72213 25.3336 8.52522 26.3468 8.66578L26.3466 12.8032C25.1645 12.6624 24.1793 12.9156 23.2788 13.1408C22.2656 13.3941 21.3367 13.6193 20.1827 13.2816L20.1829 9.17248C21.5338 9.45382 22.6315 9.20056 23.6166 8.94729L23.6167 8.94732Z" fill="white"/>
</svg>
