<svg width="115" height="25" viewBox="0 0 115 25" fill="none" xmlns="http://www.w3.org/2000/svg">
<path d="M20.4835 1.67036C11.6214 -2.26164 2.95297 2.313 0.634357 9.64202C-0.614126 13.5911 1.45983 17.4935 6.85224 18.4132C0.123825 11.8502 10.4518 -0.0731141 20.4835 1.67036Z" fill="#37B4A7"/>
<path d="M3.69263 17.8912L6.73659 21.6972C12.1595 27.076 23.8255 23.654 26.2528 14.4384C26.6759 11.6985 26.6056 8.5588 25.1264 5.49329C23.122 14.6852 13.1202 21.0126 3.69263 17.8912Z" fill="#65BA94"/>
<path d="M21.1739 21.7249C23.1551 20.2591 24.6164 18.6456 25.475 16.635C29.9359 6.25095 22.8468 -2.14214 12.3702 3.00032C16.8371 1.15773 22.6929 1.6448 24.9698 5.49672C28.7643 11.9415 23.537 20.5663 21.1739 21.7249Z" fill="white"/>
<path d="M15.6723 17.0497C10.2779 18.7682 0.500891 18.9987 0.346405 11.8882C0.313917 10.8996 0.522771 10.3148 0.678583 9.35376L0.36497 10.2701C-2.11343 18.2936 8.58653 20.6371 15.6723 17.0497Z" fill="white"/>
<path d="M41.7801 23.4179H40.226V16.6344C38.9079 18.2965 37.2808 19.1275 35.3448 19.1275C33.5871 19.1275 32.1059 18.4704 30.8992 17.1563C29.7077 15.8657 29.1123 14.3001 29.1123 12.4602C29.1123 10.6438 29.721 9.09008 30.9383 7.79889C32.1556 6.5077 33.6395 5.86243 35.3892 5.86243C37.3922 5.86243 39.0047 6.74401 40.2253 8.50652V6.18736H41.7795V23.4179H41.7801ZM40.2804 12.5869C40.2804 11.1467 39.8268 9.93294 38.9212 8.94698C38.0155 7.96103 36.8744 7.46805 35.4986 7.46805C33.6494 7.46805 32.2703 8.31156 31.3606 9.99858C30.9244 10.8001 30.7062 11.6475 30.7062 12.5409C30.7062 13.435 30.9244 14.2837 31.3606 15.0892C31.7969 15.894 32.383 16.5222 33.119 16.9725C33.8549 17.4234 34.6446 17.6486 35.488 17.6486C36.3387 17.6486 37.1449 17.4254 37.9067 16.979C38.6685 16.532 39.2547 15.9274 39.6651 15.1647C40.0755 14.4019 40.2804 13.5426 40.2804 12.5869Z" fill="#333333"/>
<path d="M55.3517 12.371C55.3517 13.7921 55.2224 14.9186 54.9639 15.7529C54.6085 16.8879 53.9607 17.757 53.0212 18.3589C52.2368 18.8611 51.2562 19.1118 50.08 19.1118C47.7634 19.1118 46.1946 18.1659 45.3731 16.2748C44.9806 15.3866 44.785 14.0468 44.785 12.2554V6.18677H46.4426V12.0644C46.4426 13.5145 46.5162 14.5017 46.6627 15.0262C46.8902 15.8284 47.3311 16.4533 47.9841 16.9003C48.6008 17.3172 49.3202 17.5252 50.143 17.5252C50.9426 17.5252 51.6441 17.3283 52.2461 16.9351C52.8839 16.5111 53.3255 15.917 53.5675 15.1536C53.7213 14.6685 53.7983 13.6385 53.7983 12.0644V6.18677H55.3524V12.371H55.3517Z" fill="#333333"/>
<path d="M70.6847 18.802H69.1306V16.6338C67.8125 18.2959 66.186 19.1269 64.25 19.1269C62.493 19.1269 61.0111 18.4698 59.8051 17.1557C58.6136 15.8651 58.0182 14.2995 58.0182 12.4596C58.0182 10.6432 58.6268 9.08947 59.8442 7.79828C61.0615 6.50709 62.5447 5.86182 64.2951 5.86182C66.2974 5.86182 67.9099 6.7434 69.1312 8.50525V6.18609H70.6854V18.802H70.6847ZM69.2167 12.5869C69.2167 11.1467 68.7632 9.93298 67.8582 8.94703C66.9518 7.96107 65.8108 7.4681 64.435 7.4681C62.5858 7.4681 61.2067 8.3116 60.297 9.99862C59.8607 10.8001 59.6426 11.6476 59.6426 12.541C59.6426 13.435 59.8607 14.2838 60.297 15.0892C60.7333 15.894 61.3194 16.5222 62.0554 16.9725C62.7913 17.4235 63.581 17.6486 64.4244 17.6486C65.275 17.6486 66.0813 17.4254 66.8431 16.9791C67.6049 16.532 68.191 15.9275 68.6015 15.1647C69.0112 14.4019 69.2167 13.5427 69.2167 12.5869Z" fill="#333333"/>
<path d="M75.243 18.8019H73.6888V1.36523H75.243V18.8019Z" fill="#65BA94"/>
<path d="M90.3694 18.802H88.8153V16.6338C87.4972 18.2959 85.8707 19.1269 83.9347 19.1269C82.1777 19.1269 80.6958 18.4698 79.4897 17.1557C78.2983 15.8651 77.7029 14.2995 77.7029 12.4596C77.7029 10.6432 78.3115 9.08947 79.5289 7.79828C80.7462 6.50709 82.2294 5.86182 83.9798 5.86182C85.9821 5.86182 87.5946 6.7434 88.8159 8.50525V6.18609H90.3701V18.802H90.3694ZM88.8776 12.5869C88.8776 11.1467 88.4241 9.93298 87.519 8.94703C86.6127 7.96107 85.4716 7.4681 84.0958 7.4681C82.2466 7.4681 80.8675 8.3116 79.9578 9.99862C79.5216 10.8001 79.3034 11.6476 79.3034 12.541C79.3034 13.435 79.5216 14.2838 79.9578 15.0892C80.3941 15.894 80.9802 16.5222 81.7162 16.9725C82.4522 17.4235 83.2418 17.6486 84.0852 17.6486C84.9359 17.6486 85.7421 17.4254 86.5039 16.9791C87.2657 16.532 87.8519 15.9275 88.2623 15.1647C88.672 14.4019 88.8776 13.5427 88.8776 12.5869Z" fill="#65BA94"/>
<path d="M106.261 12.5349C106.261 14.3538 105.656 15.9076 104.447 17.1949C103.239 18.4821 101.765 19.1254 100.028 19.1254C98.0616 19.1254 96.465 18.2471 95.2377 16.4892V18.8018H93.6836V1.36511H95.2377V8.38364C96.5313 6.72616 98.1431 5.89775 100.073 5.89775C101.818 5.89775 103.285 6.54761 104.474 7.84602C105.666 9.14509 106.261 10.708 106.261 12.5349ZM104.719 12.4942C104.719 11.6008 104.501 10.7494 104.064 9.94069C103.628 9.13197 103.042 8.5018 102.306 8.05149C101.57 7.60118 100.784 7.37537 99.9486 7.37537C99.0979 7.37537 98.2897 7.60118 97.5245 8.05149C96.7587 8.5018 96.1706 9.10899 95.7602 9.87176C95.3498 10.6345 95.1442 11.4931 95.1442 12.4482C95.1442 13.8891 95.5978 15.1022 96.5035 16.0881C97.4092 17.0741 98.5509 17.5671 99.926 17.5671C101.775 17.5671 103.158 16.7236 104.076 15.0365C104.504 14.235 104.719 13.3882 104.719 12.4942Z" fill="#65BA94"/>
<path d="M115 15.4304C115 16.4977 114.648 17.3826 113.944 18.0863C113.24 18.7899 112.372 19.1418 111.341 19.1418C109.852 19.1418 108.661 18.5477 107.772 17.3583L108.75 16.1997C109.541 17.1266 110.381 17.59 111.268 17.59C111.853 17.59 112.372 17.3918 112.827 16.9946C113.282 16.5981 113.509 16.0993 113.509 15.4986C113.509 14.8908 113.239 14.3551 112.699 13.893C112.433 13.6619 111.908 13.3383 111.124 12.9221C110.229 12.4436 109.574 11.969 109.16 11.4977C108.598 10.8649 108.317 10.108 108.317 9.22777C108.317 8.24706 108.634 7.44622 109.267 6.82458C109.901 6.20295 110.689 5.89246 111.631 5.89246C112.743 5.89246 113.862 6.46027 114.989 7.59523L113.99 8.67243C113.161 7.83876 112.352 7.42193 111.56 7.42193C111.079 7.42193 110.653 7.5867 110.284 7.91754C109.914 8.24772 109.729 8.65864 109.729 9.15031C109.729 9.97937 110.499 10.8091 112.037 11.6382C112.984 12.1489 113.672 12.6359 114.101 13.0994C114.7 13.7479 115 14.5258 115 15.4304Z" fill="#65BA94"/>
</svg>
