<svg width="42" height="43" viewBox="0 0 42 43" fill="none" xmlns="http://www.w3.org/2000/svg">
<path d="M31.1517 13.9229C30.9054 13.3072 30.6284 12.8762 30.1666 12.4144C29.7048 11.9527 29.2739 11.6756 28.6582 11.4293C28.1964 11.2446 27.5191 11.0291 26.2262 10.9676C24.8409 10.906 24.4407 10.906 20.9313 10.906C17.4526 10.906 17.0216 10.906 15.6363 10.9676C14.3742 11.0291 13.6661 11.2446 13.2044 11.4293C12.5887 11.6756 12.1577 11.9527 11.6959 12.4144C11.2342 12.8762 10.9571 13.3072 10.7108 13.9229C10.5261 14.3846 10.3106 15.0619 10.2491 16.3549C10.1875 17.7402 10.1875 18.1403 10.1875 21.6498C10.1875 25.1284 10.1875 25.5594 10.2491 26.9447C10.3106 28.2069 10.5261 28.9149 10.7108 29.3767C10.9571 29.9924 11.2342 30.4233 11.6959 30.8851C12.1577 31.3469 12.5887 31.6239 13.2044 31.8702C13.6661 32.0549 14.3434 32.2704 15.6363 32.332C17.0216 32.3935 17.4218 32.3935 20.9313 32.3935C24.4099 32.3935 24.8409 32.3935 26.2262 32.332C27.4884 32.2704 28.1964 32.0549 28.6582 31.8702C29.2739 31.6239 29.7048 31.3469 30.1666 30.8851C30.6284 30.4233 30.9054 29.9924 31.1517 29.3767C31.3364 28.9149 31.5519 28.2376 31.6135 26.9447C31.675 25.5594 31.675 25.1592 31.675 21.6498C31.675 18.1711 31.675 17.7402 31.6135 16.3549C31.5519 15.0619 31.3364 14.3846 31.1517 13.9229ZM20.9621 28.3608C17.2371 28.3608 14.251 25.3439 14.251 21.6498C14.251 17.9249 17.2679 14.9388 20.9621 14.9388C24.687 14.9388 27.6731 17.9556 27.6731 21.6498C27.6731 25.3439 24.6562 28.3608 20.9621 28.3608ZM27.9501 16.2317C27.0882 16.2317 26.3801 15.5237 26.3801 14.6617C26.3801 13.7997 27.0882 13.0917 27.9501 13.0917C28.8121 13.0917 29.5201 13.7997 29.5201 14.6617C29.5201 15.5237 28.8121 16.2317 27.9501 16.2317Z" fill="white"/>
<path d="M21.7939 25.9431C24.1647 25.4866 25.7165 23.1946 25.2599 20.8238C24.8034 18.453 22.5114 16.9012 20.1406 17.3577C17.7698 17.8142 16.218 20.1062 16.6745 22.477C17.1311 24.8478 19.4231 26.3996 21.7939 25.9431Z" fill="white"/>
<path d="M20.9618 0.870117C9.47916 0.870117 0.182251 10.167 0.182251 21.6496C0.182251 33.1322 9.47916 42.4291 20.9618 42.4291C32.4444 42.4291 41.7413 33.1322 41.7413 21.6496C41.7413 10.167 32.4444 0.870117 20.9618 0.870117ZM33.9528 27.0369C33.8912 28.4222 33.6757 29.3765 33.3371 30.2077C32.9985 31.0697 32.5675 31.8085 31.8287 32.5165C31.0898 33.2554 30.3818 33.6863 29.5198 34.025C28.6886 34.3636 27.7343 34.5791 26.349 34.6407C24.9637 34.7022 24.502 34.733 20.9618 34.733C17.4215 34.733 16.9598 34.733 15.5745 34.6407C14.1892 34.5791 13.2349 34.3636 12.4037 34.025C11.5417 33.6863 10.8029 33.2554 10.0948 32.5165C9.35601 31.7777 8.92503 31.0697 8.5864 30.2077C8.24778 29.3765 8.03228 28.4222 7.97072 27.0369C7.90915 25.6516 7.87836 25.1898 7.87836 21.6496C7.87836 18.1094 7.87836 17.6476 7.97072 16.2623C8.03228 14.877 8.24778 13.9227 8.5864 13.0915C8.92503 12.2296 9.35601 11.4907 10.0948 10.7827C10.8337 10.0439 11.5417 9.6129 12.4037 9.27427C13.2349 8.93564 14.1892 8.72015 15.5745 8.65858C16.9598 8.59701 17.4215 8.56623 20.9618 8.56623C24.502 8.56623 24.9637 8.56623 26.349 8.65858C27.7343 8.72015 28.6886 8.93564 29.5198 9.27427C30.3818 9.6129 31.1206 10.0439 31.8287 10.7827C32.5675 11.5215 32.9985 12.2296 33.3371 13.0915C33.6757 13.9227 33.8912 14.877 33.9528 16.2623C34.0144 17.6476 34.0451 18.1094 34.0451 21.6496C34.0451 25.1898 34.0144 25.6516 33.9528 27.0369Z" fill="white"/>
</svg>
