<svg width="379" height="181" viewBox="0 0 375 181" fill="none" xmlns="http://www.w3.org/2000/svg">
<path d="M-51.3896 73.3074C-43.1608 91.9965 -21.3165 102.113 -0.920423 101.031C19.4756 99.9488 38.3294 89.5119 54.1103 76.5531C66.532 66.3502 79.2719 53.7408 95.35 53.636C106.647 53.5527 117.681 60.5948 122.368 70.9063C126.896 80.8373 125.604 92.2928 125.058 103.197C124.587 112.717 123.233 124.376 126.036 133.486C128.839 142.595 136.231 150.959 144.575 155.56C158.614 163.293 176.121 155.912 188.643 145.927C201.165 135.941 208.275 122.222 218.125 109.583C228.08 96.8193 239.809 82.9591 252.485 72.8941C266.239 61.9812 285.779 54.9403 302.312 60.8332C308.78 63.1363 314.779 66.3374 319.963 70.8382C331.633 80.9563 340.781 92.8024 351.156 104.244C357.599 111.288 374.675 124.872 398.072 122.274C477.667 113.436 573.781 4.22212 588.88 108.015" stroke="url(#paint0_linear_1_827)" stroke-width="5" stroke-miterlimit="10"/>
<defs>
<linearGradient id="paint0_linear_1_827" x1="165.323" y1="165.323" x2="643.768" y2="111.305" gradientUnits="userSpaceOnUse">
<stop stop-color="#FF8D4E"/>
<stop offset="1" stop-color="#F5A063" stop-opacity="0"/>
</linearGradient>
</defs>
</svg>
