<svg width="40" height="40" viewBox="0 0 40 40" fill="none" xmlns="http://www.w3.org/2000/svg">
<rect width="40" height="40" rx="11.7647" fill="#37B4A7"/>
<path fill-rule="evenodd" clip-rule="evenodd" d="M15.155 25.8825C14.8755 26.1948 14.7055 26.6071 14.7055 27.0589C14.7055 27.5107 14.8755 27.9229 15.155 28.2353C14.8755 28.5477 14.7055 28.9601 14.7055 29.4119C14.7055 30.3866 15.4955 31.1766 16.4702 31.1766H17.1172C17.3902 32.5182 18.5779 33.5294 19.9997 33.5294C21.4215 33.5294 22.6091 32.5182 22.8821 31.1766H23.5291C24.5038 31.1766 25.2938 30.3866 25.2938 29.4119C25.2938 28.9601 25.1238 28.5476 24.8443 28.2353C25.1238 27.9229 25.2938 27.5107 25.2938 27.0589C25.2938 26.6071 25.1238 26.1948 24.8443 25.8825C25.1333 25.5601 25.2938 25.1411 25.2938 24.7059C25.2938 24.2212 25.2938 23.6612 25.3056 23.1824V23.1682C25.3056 22.6684 25.5191 22.1924 25.8919 21.8595C25.8925 21.8595 25.8931 21.8589 25.8937 21.8583C27.6921 20.2425 28.8232 17.8995 28.8232 15.2941C28.8232 10.424 24.8698 6.47055 19.9997 6.47055C15.1296 6.47055 11.1761 10.424 11.1761 15.2941C11.1761 17.9006 12.3084 20.2445 14.1149 21.8517C14.4909 22.1858 14.7056 22.6654 14.7056 23.1682V24.7058C14.7056 25.141 14.8661 25.5599 15.155 25.8824L15.155 25.8825ZM18.3356 31.1766C18.5779 31.8618 19.2319 32.353 19.9997 32.353C20.7674 32.353 21.4215 31.8618 21.6637 31.1766H18.3356ZM23.5289 28.8236H16.47C16.1453 28.8236 15.8817 29.0871 15.8817 29.4119C15.8817 29.7365 16.1453 30 16.47 30H23.5289C23.8537 30 24.1172 29.7365 24.1172 29.4119C24.1172 29.0871 23.8537 28.8236 23.5289 28.8236ZM24.1172 27.0589C24.1172 26.7341 23.8537 26.4706 23.5289 26.4706H16.47C16.1453 26.4706 15.8817 26.7341 15.8817 27.0589C15.8817 27.3837 16.1453 27.6472 16.47 27.6472H23.5289C23.8537 27.6472 24.1172 27.3837 24.1172 27.0589ZM15.8815 24.7059V23.1683C15.8815 22.3294 15.5233 21.5306 14.897 20.973V20.9724C13.3322 19.5807 12.3521 17.5513 12.3521 15.2941C12.3521 11.0734 15.7787 7.64685 19.9994 7.64685C24.22 7.64685 27.6466 11.0733 27.6466 15.2941C27.6466 17.5522 26.6654 19.5828 25.1071 20.983C24.4859 21.537 24.1294 22.3324 24.1288 23.167C24.1172 23.6464 24.1172 24.214 24.1172 24.7058C24.1172 24.8618 24.0554 25.0117 23.9449 25.1218C23.8348 25.2323 23.6847 25.2941 23.5289 25.2941H16.4701C16.3143 25.2941 16.1642 25.2323 16.0541 25.1218C15.9436 25.0117 15.8818 24.8618 15.8818 24.7058L15.8815 24.7059Z" fill="white"/>
<path fill-rule="evenodd" clip-rule="evenodd" d="M18.2352 17.0589V23.5294C18.2352 23.8541 18.4987 24.1177 18.8235 24.1177C19.1481 24.1177 19.4116 23.8541 19.4116 23.5294V15.2942C19.4116 14.3201 18.621 13.5295 17.6469 13.5295C16.6728 13.5295 15.8822 14.3201 15.8822 15.2942C15.8822 16.2683 16.6728 17.0589 17.6469 17.0589H18.2352ZM20.5882 15.2942V23.5294C20.5882 23.8541 20.8518 24.1177 21.1763 24.1177C21.5011 24.1177 21.7646 23.8541 21.7646 23.5294V17.0589H22.3529C23.3271 17.0589 24.1176 16.2683 24.1176 15.2942C24.1176 14.3201 23.3271 13.5295 22.3529 13.5295C21.3788 13.5295 20.5882 14.3201 20.5882 15.2942ZM17.6469 14.7059C17.9717 14.7059 18.2352 14.9694 18.2352 15.2942V15.8823H17.6469C17.3223 15.8823 17.0588 15.6188 17.0588 15.2942C17.0588 14.9694 17.3223 14.7059 17.6469 14.7059ZM22.3529 14.7059C22.6775 14.7059 22.941 14.9694 22.941 15.2942C22.941 15.6188 22.6775 15.8823 22.3529 15.8823H21.7646V15.2942C21.7646 14.9694 22.0282 14.7059 22.3529 14.7059Z" fill="white"/>
<path fill-rule="evenodd" clip-rule="evenodd" d="M7.05868 15.8821H9.41169C9.73647 15.8821 10 15.6186 10 15.294C10 14.9692 9.73647 14.7057 9.41169 14.7057H7.05868C6.7341 14.7057 6.47058 14.9692 6.47058 15.294C6.47058 15.6186 6.73411 15.8821 7.05868 15.8821Z" fill="white"/>
<path fill-rule="evenodd" clip-rule="evenodd" d="M8.49859 9.33289L10.5363 10.5093C10.8175 10.6716 11.1774 10.5751 11.3399 10.294C11.5022 10.0128 11.4057 9.65273 11.1244 9.49043L9.08672 8.31403C8.80567 8.15154 8.44563 8.24805 8.28313 8.5293C8.12083 8.81035 8.21734 9.17039 8.49859 9.33289Z" fill="white"/>
<path fill-rule="evenodd" clip-rule="evenodd" d="M9.08642 22.2744L11.1243 21.0978C11.4054 20.9355 11.5019 20.5755 11.3396 20.2942C11.1771 20.0131 10.8173 19.9166 10.536 20.0789L8.49829 21.2553C8.21704 21.4178 8.12053 21.7778 8.28302 22.0589C8.44531 22.3402 8.80532 22.4367 9.08642 22.2744V22.2744Z" fill="white"/>
<path fill-rule="evenodd" clip-rule="evenodd" d="M32.9413 14.7058H30.5883C30.2635 14.7058 30 14.9694 30 15.2941C30 15.6187 30.2635 15.8822 30.5883 15.8822H32.9413C33.2659 15.8822 33.5294 15.6187 33.5294 15.2941C33.5294 14.9694 33.2659 14.7058 32.9413 14.7058Z" fill="white"/>
<path fill-rule="evenodd" clip-rule="evenodd" d="M31.5017 21.2549L29.4639 20.0785C29.1828 19.9162 28.8228 20.0125 28.6605 20.2938C28.498 20.575 28.5945 20.9351 28.8757 21.0974L30.9134 22.2738C31.1947 22.4363 31.5545 22.3397 31.717 22.0585C31.8793 21.7772 31.7828 21.4172 31.5017 21.2549Z" fill="white"/>
<path fill-rule="evenodd" clip-rule="evenodd" d="M30.9133 8.31404L28.8756 9.49044C28.5944 9.65273 28.4978 10.0127 28.6603 10.294C28.8226 10.5753 29.1826 10.6718 29.4639 10.5093L31.5016 9.3329C31.7827 9.17061 31.8792 8.8106 31.7169 8.52931C31.5546 8.24801 31.1946 8.15155 30.9133 8.31404Z" fill="white"/>
</svg>
