<svg width="42" height="43" viewBox="0 0 42 43" fill="none" xmlns="http://www.w3.org/2000/svg">
<path d="M20.7795 0.870117C9.2969 0.870117 0 10.167 0 21.6496C0 33.1322 9.2969 42.4291 20.7795 42.4291C32.2621 42.4291 41.559 33.1322 41.559 21.6496C41.559 10.167 32.2621 0.870117 20.7795 0.870117ZM13.9146 32.9783C12.4369 32.9475 10.9593 32.9783 9.48161 32.9783C9.23533 32.9783 9.17376 32.9167 9.17376 32.6704C9.17376 27.4063 9.17376 22.1422 9.17376 16.878C9.17376 16.6625 9.23533 16.5702 9.45082 16.5702C10.9593 16.5702 12.4369 16.5702 13.9454 16.5702C14.2224 16.5702 14.284 16.6933 14.284 16.9396C14.284 19.5563 14.284 22.173 14.284 24.8204C14.284 27.4371 14.284 30.023 14.284 32.6397C14.284 32.9167 14.2224 33.0091 13.9146 32.9783ZM11.7289 14.3229C10.1281 14.3229 8.77357 12.9992 8.77357 11.3984C8.77357 9.76682 10.0973 8.44309 11.7289 8.44309C13.3297 8.44309 14.6842 9.76682 14.6842 11.3676C14.6842 12.9992 13.3604 14.3229 11.7289 14.3229ZM33.4011 32.6397C33.4011 32.9167 33.3396 32.9783 33.0625 32.9783C31.5848 32.9783 30.1072 32.9783 28.6295 32.9783C28.3833 32.9783 28.3217 32.8859 28.3217 32.6397C28.3217 29.8998 28.3217 27.1908 28.3217 24.451C28.3217 23.7737 28.2909 23.0965 28.0754 22.4192C27.7368 21.1878 26.844 20.5722 25.5511 20.6337C23.7964 20.7261 22.8728 21.588 22.6574 23.3735C22.5958 23.8045 22.565 24.2355 22.565 24.6665C22.565 27.314 22.565 29.9922 22.565 32.6397C22.565 32.9167 22.5034 32.9783 22.2264 32.9783C20.7487 32.9783 19.2403 32.9783 17.7626 32.9783C17.5163 32.9783 17.4548 32.9167 17.4548 32.6704C17.4548 27.4063 17.4548 22.1422 17.4548 16.878C17.4548 16.6318 17.5471 16.5702 17.7934 16.5702C19.2095 16.5702 20.6256 16.5702 22.0417 16.5702C22.2879 16.5702 22.3803 16.6625 22.3495 16.9088C22.3495 17.5245 22.3495 18.171 22.3495 18.7867C22.6881 18.4173 22.9652 18.0171 23.3346 17.6784C24.4121 16.6625 25.6742 16.1392 27.1827 16.17C28.0138 16.17 28.8142 16.2316 29.5839 16.4778C31.4001 17.0012 32.4468 18.2325 32.9394 20.018C33.3088 21.3418 33.3703 22.6963 33.4011 24.0508C33.4011 26.9138 33.4011 29.7767 33.4011 32.6397Z" fill="#FDFDFD"/>
</svg>
