<svg width="175" height="37" viewBox="0 0 176 37" fill="none" xmlns="http://www.w3.org/2000/svg">
<path d="M31.2918 2.22347C17.7535 -3.83086 4.51092 3.21299 0.968842 14.4979C-0.938432 20.5785 2.22989 26.5874 10.4677 28.0034C0.188915 17.898 15.9667 -0.461053 31.2918 2.22347Z" fill="white"/>
<path d="M5.64136 27.1995L10.2915 33.0597C18.576 41.3417 36.3978 36.0728 40.106 21.883C40.7522 17.6641 40.6449 12.8298 38.3851 8.10962C35.3231 22.263 20.0437 32.0055 5.64136 27.1995Z" fill="white"/>
<path d="M32.3471 33.1029C35.3736 30.8459 37.6061 28.3615 38.9177 25.2656C45.7325 9.27676 34.9026 -3.64656 18.8979 4.27157C25.7218 1.43442 34.6677 2.18439 38.1459 8.11542C43.9427 18.0389 35.9571 31.319 32.3471 33.1029Z" fill="#D9D9D9"/>
<path d="M23.9422 25.9039C15.7013 28.55 0.765197 28.9048 0.529193 17.9564C0.479562 16.4342 0.798623 15.5337 1.03665 14.054L0.557554 15.4649C-3.22863 27.8192 13.1174 31.4276 23.9422 25.9039Z" fill="#37B4A7"/>
<path d="M63.8257 35.7094H61.4515V25.2645C59.4378 27.8237 56.9522 29.1033 53.9946 29.1033C51.3094 29.1033 49.0466 28.0915 47.2031 26.068C45.383 24.0809 44.4734 21.6703 44.4734 18.8372C44.4734 16.0405 45.4032 13.648 47.2629 11.6599C49.1226 9.67178 51.3894 8.67822 54.0624 8.67822C57.1224 8.67822 59.5857 10.0356 61.4505 12.7495V9.17854H63.8247V35.7094H63.8257ZM61.5345 19.0322C61.5345 16.8147 60.8417 14.9458 59.4581 13.4277C58.0745 11.9096 56.3313 11.1505 54.2296 11.1505C51.4046 11.1505 49.2978 12.4493 47.9081 15.0469C47.2416 16.281 46.9084 17.5859 46.9084 18.9615C46.9084 20.3381 47.2416 21.645 47.9081 22.8852C48.5746 24.1244 49.47 25.0916 50.5943 25.785C51.7186 26.4794 52.925 26.8261 54.2133 26.8261C55.5129 26.8261 56.7446 26.4824 57.9084 25.7951C59.0722 25.1068 59.9676 24.1759 60.5946 23.0014C61.2215 21.8269 61.5345 20.5039 61.5345 19.0322Z" fill="white"/>
<path d="M84.5585 18.6999C84.5585 20.8882 84.361 22.6226 83.9659 23.9072C83.423 25.6548 82.4334 26.993 80.9982 27.9199C79.7999 28.6931 78.3018 29.0792 76.505 29.0792C72.9659 29.0792 70.5694 27.6227 69.3145 24.7108C68.7148 23.3433 68.416 21.2803 68.416 18.522V9.17773H70.9482V18.2279C70.9482 20.4606 71.0607 21.9808 71.2845 22.7884C71.6319 24.0235 72.3055 24.9857 73.3032 25.674C74.2452 26.3158 75.3442 26.6362 76.6012 26.6362C77.8227 26.6362 78.8944 26.333 79.8141 25.7276C80.7885 25.0746 81.4631 24.1599 81.8328 22.9844C82.0678 22.2375 82.1853 20.6517 82.1853 18.2279V9.17773H84.5595V18.6999H84.5585Z" fill="white"/>
<path d="M107.983 28.6017H105.608V25.2632C103.595 27.8224 101.11 29.102 98.1525 29.102C95.4683 29.102 93.2045 28.0903 91.3621 26.0668C89.5419 24.0797 88.6323 21.6691 88.6323 18.8359C88.6323 16.0392 89.5622 13.6468 91.4218 11.6587C93.2815 9.67056 95.5473 8.677 98.2214 8.677C101.28 8.677 103.744 10.0344 105.609 12.7473V9.17631H107.984V28.6017H107.983ZM105.74 19.032C105.74 16.8145 105.047 14.9456 103.665 13.4275C102.28 11.9093 100.537 11.1503 98.4351 11.1503C95.6101 11.1503 93.5033 12.4491 92.1136 15.0467C91.4471 16.2808 91.1139 17.5857 91.1139 18.9613C91.1139 20.3379 91.4471 21.6448 92.1136 22.885C92.7801 24.1241 93.6755 25.0914 94.7998 25.7848C95.9241 26.4792 97.1305 26.8258 98.4189 26.8258C99.7184 26.8258 100.95 26.4822 102.114 25.7949C103.278 25.1066 104.173 24.1757 104.8 23.0012C105.426 21.8267 105.74 20.5037 105.74 19.032Z" fill="white"/>
<path d="M114.946 28.6017H112.572V1.75342H114.946V28.6017Z" fill="white"/>
<path d="M138.054 28.6017H135.68V25.2632C133.667 27.8224 131.182 29.102 128.224 29.102C125.54 29.102 123.276 28.0903 121.434 26.0668C119.614 24.0797 118.704 21.6691 118.704 18.8359C118.704 16.0392 119.634 13.6468 121.494 11.6587C123.353 9.67056 125.619 8.677 128.293 8.677C131.352 8.677 133.815 10.0344 135.681 12.7473V9.17631H138.055V28.6017H138.054ZM135.775 19.032C135.775 16.8145 135.083 14.9456 133.7 13.4275C132.315 11.9093 130.572 11.1503 128.47 11.1503C125.645 11.1503 123.539 12.4491 122.149 15.0467C121.482 16.2808 121.149 17.5857 121.149 18.9613C121.149 20.3379 121.482 21.6448 122.149 22.885C122.815 24.1241 123.711 25.0914 124.835 25.7848C125.959 26.4792 127.166 26.8258 128.454 26.8258C129.754 26.8258 130.985 26.4822 132.149 25.7949C133.313 25.1066 134.208 24.1757 134.835 23.0012C135.461 21.8267 135.775 20.5037 135.775 19.032Z" fill="white"/>
<path d="M162.331 18.9522C162.331 21.7529 161.408 24.1453 159.561 26.1274C157.715 28.1095 155.464 29.1 152.81 29.1C149.806 29.1 147.367 27.7476 145.492 25.0409V28.6017H143.118V1.75342H145.492V12.5602C147.468 10.0081 149.931 8.73258 152.878 8.73258C155.544 8.73258 157.785 9.73321 159.603 11.7325C161.423 13.7327 162.331 16.1393 162.331 18.9522ZM159.976 18.8895C159.976 17.5139 159.643 16.203 158.976 14.9577C158.309 13.7125 157.414 12.7422 156.289 12.0488C155.165 11.3554 153.965 11.0078 152.689 11.0078C151.389 11.0078 150.154 11.3554 148.985 12.0488C147.816 12.7422 146.917 13.6771 146.29 14.8516C145.663 16.0261 145.349 17.3481 145.349 18.8187C145.349 21.0373 146.042 22.9052 147.426 24.4233C148.809 25.9414 150.553 26.7005 152.654 26.7005C155.479 26.7005 157.592 25.4017 158.994 22.8041C159.648 21.57 159.976 20.2661 159.976 18.8895Z" fill="white"/>
<path d="M175.682 23.4111C175.682 25.0546 175.144 26.4171 174.069 27.5006C172.993 28.5841 171.667 29.1259 170.093 29.1259C167.817 29.1259 165.999 28.2111 164.64 26.3797L166.135 24.5957C167.343 26.0229 168.625 26.7365 169.982 26.7365C170.874 26.7365 171.668 26.4312 172.363 25.8197C173.058 25.2093 173.405 24.4411 173.405 23.5163C173.405 22.5803 172.992 21.7556 172.168 21.044C171.761 20.6882 170.958 20.1899 169.761 19.5491C168.394 18.8123 167.393 18.0815 166.761 17.3558C165.902 16.3815 165.472 15.2161 165.472 13.8607C165.472 12.3506 165.957 11.1175 166.925 10.1603C167.893 9.20318 169.096 8.7251 170.536 8.7251C172.234 8.7251 173.944 9.59939 175.666 11.347L174.14 13.0056C172.874 11.7219 171.637 11.0801 170.427 11.0801C169.692 11.0801 169.042 11.3338 168.478 11.8432C167.912 12.3516 167.63 12.9844 167.63 13.7414C167.63 15.018 168.806 16.2955 171.156 17.5721C172.603 18.3585 173.653 19.1084 174.309 19.822C175.224 20.8206 175.682 22.0183 175.682 23.4111Z" fill="white"/>
</svg>
