<svg width="40" height="40" viewBox="0 0 40 40" fill="none" xmlns="http://www.w3.org/2000/svg">
<rect width="40" height="40" rx="11.7647" fill="#37B4A7"/>
<path fill-rule="evenodd" clip-rule="evenodd" d="M32.0991 19.0644C31.4852 19.0648 30.8844 18.893 30.3696 18.5703L27.5784 21.6185C28.1649 22.5155 28.2291 23.6412 27.7485 24.595C27.268 25.5488 26.3106 26.1949 25.2177 26.3032C24.1247 26.4117 23.0513 25.9668 22.3797 25.1272C21.7083 24.2876 21.5344 23.1726 21.9197 22.1794L18.1151 20.3465C17.6891 21.044 16.9936 21.5494 16.1813 21.7518C15.3692 21.954 14.5069 21.8365 13.7846 21.4248L10.1943 24.3529L10.063 24.2127C10.6006 25.113 10.6309 26.2145 10.1434 27.1411C9.65579 28.0675 8.71653 28.6936 7.64613 28.8056C6.5759 28.9175 5.51937 28.4999 4.83773 27.6956C4.15591 26.8914 3.94121 25.8092 4.26673 24.8187C4.59227 23.828 5.41411 23.0632 6.45152 22.7854C7.48892 22.5077 8.60157 22.7544 9.40933 23.4414L12.8681 20.6235C12.2495 19.8382 12.0611 18.8134 12.3614 17.8705C12.6619 16.9276 13.4146 16.1823 14.3834 15.8684C15.3522 15.5543 16.4184 15.7101 17.2476 16.2869C18.0765 16.8637 18.5669 17.7908 18.5646 18.7773C18.5625 18.9249 18.5499 19.0721 18.5266 19.218L22.5699 21.1611C23.0938 20.6091 23.8095 20.262 24.581 20.1857C25.3525 20.1093 26.1262 20.3091 26.7552 20.747L29.5223 17.7422C28.9798 16.9871 28.8177 16.0366 29.0811 15.1535C29.3444 14.2706 30.005 13.5485 30.8804 13.1873C31.7557 12.8261 32.7528 12.864 33.596 13.2904C34.4394 13.7168 35.0392 14.4867 35.2298 15.3871C35.4205 16.2874 35.1817 17.2227 34.5792 17.9342C33.9769 18.6458 33.0752 19.0583 32.1232 19.0577L32.0991 19.0644Z" fill="white"/>
</svg>
