<svg width="42" height="43" viewBox="0 0 42 43" fill="none" xmlns="http://www.w3.org/2000/svg">
<path d="M18.45 25.8055L25.6535 21.6496L18.45 17.4937V25.8055Z" fill="white"/>
<path d="M21.2207 0.870117C9.73806 0.870117 0.441162 10.167 0.441162 21.6496C0.441162 33.1322 9.73806 42.4291 21.2207 42.4291C32.7033 42.4291 42.0002 33.1322 42.0002 21.6496C42.0002 10.167 32.7033 0.870117 21.2207 0.870117ZM34.4887 28.2991C34.1809 29.4996 33.2266 30.4232 32.026 30.7618C29.8711 31.3467 21.1899 31.3467 21.1899 31.3467C21.1899 31.3467 12.5395 31.3467 10.3538 30.7618C9.15316 30.454 8.22963 29.4996 7.891 28.2991C7.3061 26.1441 7.30609 21.6188 7.30609 21.6188C7.30609 21.6188 7.3061 17.1243 7.891 14.9386C8.19885 13.738 9.15316 12.8145 10.3538 12.4759C12.5087 11.8909 21.1899 11.8909 21.1899 11.8909C21.1899 11.8909 29.8403 11.8909 32.026 12.4759C33.2266 12.7837 34.1501 13.738 34.4887 14.9386C35.0737 17.0935 35.0737 21.6188 35.0737 21.6188C35.0737 21.6188 35.0737 26.1441 34.4887 28.2991Z" fill="white"/>
</svg>
